<mxfile host="app.diagrams.net" agent="Mozilla/5.0 (Windows NT 10.0; Win64; x64; rv:143.0) Gecko/20100101 Firefox/143.0" version="28.2.5">
  <diagram name="Page-1" id="AXnHlhx43n0XgX-Rsl5w">
    <mxGraphModel dx="888" dy="535" grid="1" gridSize="10" guides="1" tooltips="1" connect="1" arrows="1" fold="1" page="1" pageScale="1" pageWidth="1920" pageHeight="1200" math="0" shadow="0">
      <root>
        <mxCell id="0" />
        <mxCell id="1" parent="0" />
        <mxCell id="bXOOzCjWLN5JiLnb-atg-15" style="edgeStyle=orthogonalEdgeStyle;rounded=0;orthogonalLoop=1;jettySize=auto;html=1;exitX=0;exitY=0.5;exitDx=0;exitDy=0;entryX=1;entryY=0.5;entryDx=0;entryDy=0;" edge="1" parent="1" source="bXOOzCjWLN5JiLnb-atg-1" target="bXOOzCjWLN5JiLnb-atg-4">
          <mxGeometry relative="1" as="geometry" />
        </mxCell>
        <mxCell id="bXOOzCjWLN5JiLnb-atg-1" value="wt" style="rounded=0;whiteSpace=wrap;html=1;" vertex="1" parent="1">
          <mxGeometry x="720" y="100" width="120" height="60" as="geometry" />
        </mxCell>
        <mxCell id="bXOOzCjWLN5JiLnb-atg-11" style="edgeStyle=orthogonalEdgeStyle;rounded=0;orthogonalLoop=1;jettySize=auto;html=1;exitX=1;exitY=0.5;exitDx=0;exitDy=0;entryX=0;entryY=0.5;entryDx=0;entryDy=0;" edge="1" parent="1" source="bXOOzCjWLN5JiLnb-atg-3" target="bXOOzCjWLN5JiLnb-atg-5">
          <mxGeometry relative="1" as="geometry" />
        </mxCell>
        <mxCell id="bXOOzCjWLN5JiLnb-atg-3" value="sens1" style="rounded=0;whiteSpace=wrap;html=1;" vertex="1" parent="1">
          <mxGeometry x="880" y="100" width="120" height="60" as="geometry" />
        </mxCell>
        <mxCell id="bXOOzCjWLN5JiLnb-atg-16" style="edgeStyle=orthogonalEdgeStyle;rounded=0;orthogonalLoop=1;jettySize=auto;html=1;exitX=0;exitY=0.5;exitDx=0;exitDy=0;entryX=1;entryY=0.5;entryDx=0;entryDy=0;" edge="1" parent="1" source="bXOOzCjWLN5JiLnb-atg-4" target="bXOOzCjWLN5JiLnb-atg-6">
          <mxGeometry relative="1" as="geometry" />
        </mxCell>
        <mxCell id="bXOOzCjWLN5JiLnb-atg-4" value="sens3" style="rounded=0;whiteSpace=wrap;html=1;" vertex="1" parent="1">
          <mxGeometry x="560" y="100" width="120" height="60" as="geometry" />
        </mxCell>
        <mxCell id="bXOOzCjWLN5JiLnb-atg-12" style="edgeStyle=orthogonalEdgeStyle;rounded=0;orthogonalLoop=1;jettySize=auto;html=1;exitX=1;exitY=0.5;exitDx=0;exitDy=0;entryX=0;entryY=0.5;entryDx=0;entryDy=0;" edge="1" parent="1" source="bXOOzCjWLN5JiLnb-atg-5" target="bXOOzCjWLN5JiLnb-atg-7">
          <mxGeometry relative="1" as="geometry" />
        </mxCell>
        <mxCell id="bXOOzCjWLN5JiLnb-atg-5" value="sens2" style="rounded=0;whiteSpace=wrap;html=1;" vertex="1" parent="1">
          <mxGeometry x="1040" y="100" width="120" height="60" as="geometry" />
        </mxCell>
        <mxCell id="bXOOzCjWLN5JiLnb-atg-17" style="edgeStyle=orthogonalEdgeStyle;rounded=0;orthogonalLoop=1;jettySize=auto;html=1;exitX=0;exitY=0.5;exitDx=0;exitDy=0;entryX=1;entryY=0.5;entryDx=0;entryDy=0;" edge="1" parent="1" source="bXOOzCjWLN5JiLnb-atg-6" target="bXOOzCjWLN5JiLnb-atg-8">
          <mxGeometry relative="1" as="geometry" />
        </mxCell>
        <mxCell id="bXOOzCjWLN5JiLnb-atg-6" value="sens4" style="rounded=0;whiteSpace=wrap;html=1;" vertex="1" parent="1">
          <mxGeometry x="400" y="100" width="120" height="60" as="geometry" />
        </mxCell>
        <mxCell id="bXOOzCjWLN5JiLnb-atg-7" value="enter" style="rounded=0;whiteSpace=wrap;html=1;" vertex="1" parent="1">
          <mxGeometry x="1200" y="100" width="120" height="60" as="geometry" />
        </mxCell>
        <mxCell id="bXOOzCjWLN5JiLnb-atg-8" value="exit" style="rounded=0;whiteSpace=wrap;html=1;" vertex="1" parent="1">
          <mxGeometry x="240" y="100" width="120" height="60" as="geometry" />
        </mxCell>
      </root>
    </mxGraphModel>
  </diagram>
</mxfile>
